<svg xmlns="http://www.w3.org/2000/svg" viewBox="0 0 49.13 9.38"><defs><style>.cls-1{fill:#fff;}</style></defs><g id="Calque_2" data-name="Calque 2"><g id="Calque_1-2" data-name="Calque 1"><path class="cls-1" d="M27.46,0A3,3,0,0,0,25,1.31a2.95,2.95,0,0,0-4.9,0,2.95,2.95,0,0,0-4.9,0,2.95,2.95,0,0,0-4.9,0,2.95,2.95,0,0,0-4.9,0A2.95,2.95,0,0,0,0,3V9.38H1V3A2,2,0,0,1,4.9,3V9.38h1V3A2,2,0,0,1,9.8,3V9.38h1V3a1.95,1.95,0,1,1,3.9,0V9.38h1V3a2,2,0,0,1,3.9,0V9.38h1V3a1.95,1.95,0,1,1,3.9,0V9.38h1V3a2,2,0,0,1,3.91,0V4.68a4.66,4.66,0,0,0,8.36,2.86V9.38h1V4.68A4.69,4.69,0,0,0,34.09,0a4.76,4.76,0,0,0-1.9.4l.4.92a3.69,3.69,0,1,1-2.18,3.36V3A3,3,0,0,0,27.46,0Z"/><path class="cls-1" d="M44.45,0a4.69,4.69,0,0,0-4.68,4.68v4.7h1V4.68a3.68,3.68,0,1,1,3.68,3.69A3.63,3.63,0,0,1,43,8.05L42.55,9a4.61,4.61,0,0,0,1.9.41,4.69,4.69,0,0,0,0-9.37Z"/></g></g></svg>